<svg width="164" height="37" viewBox="0 0 164 37" fill="none" xmlns="http://www.w3.org/2000/svg">
<path fill-rule="evenodd" clip-rule="evenodd" d="M38.2595 3.06429C37.3194 2.59177 36.1561 2.45251 34.8561 2.68918C34.0546 2.83568 33.2 3.12547 32.3138 3.5674C31.463 3.99323 30.6484 4.52692 29.8766 5.14594L33.0075 6.72046C33.7793 6.10144 34.5939 5.56775 35.4438 5.14272C36.33 4.69999 37.1836 4.4102 37.9861 4.2637C39.2861 4.02703 40.4494 4.16629 41.3895 4.63881L38.2595 3.06429Z" fill="#F0A72E"/>
<mask id="mask0" mask-type="alpha" maskUnits="userSpaceOnUse" x="0" y="0" width="31" height="35">
<path fill-rule="evenodd" clip-rule="evenodd" d="M0 0.609169H30.3026V34.2607H0V0.609169Z" fill="white"/>
</mask>
<g mask="url(#mask0)">
<path fill-rule="evenodd" clip-rule="evenodd" d="M27.1726 1.17325C26.0865 0.62668 24.7409 0.466492 23.2382 0.740181C22.3102 0.909225 21.3217 1.24409 20.2961 1.75686C18.5898 2.61013 16.9876 3.84978 15.5983 5.31563C13.0421 8.01308 11.2065 11.4761 10.762 14.7C9.99487 14.8497 9.17285 15.1338 8.32945 15.5556C6.85838 16.2906 5.47751 17.358 4.28075 18.6202C1.71614 21.3224 -0.00971918 24.9158 -0.000420372 28.0439C0.00794856 30.3252 0.9369 31.9311 2.4368 32.6854L5.56678 34.2607C4.06595 33.5057 3.137 31.8997 3.12956 29.6185C3.11933 26.4903 4.84612 22.897 7.4098 20.1947C8.60749 18.9325 9.98743 17.8651 11.4594 17.1302C12.3019 16.7084 13.1248 16.4242 13.8911 16.2745C14.3356 13.0506 16.1721 9.5876 18.7283 6.89015C20.1176 5.4243 21.7188 4.18465 23.4261 3.33138C24.4508 2.81861 25.4393 2.48374 26.3673 2.3147C27.8709 2.04021 29.2155 2.2012 30.3025 2.74778L27.1726 1.17325Z" fill="#F0A72E"/>
</g>
<path fill-rule="evenodd" clip-rule="evenodd" d="M23.4258 3.33153C28.2668 0.911795 32.2895 2.44607 33.0073 6.72045C33.7791 6.10143 34.5937 5.56774 35.4436 5.14271C40.0577 2.83648 43.8125 4.68871 43.8274 9.27784C43.8423 13.8678 40.1116 19.4607 35.4975 21.7669L11.5131 33.7545C6.89254 36.064 3.14419 34.2086 3.12932 29.6186C3.11444 25.0287 6.83768 19.4398 11.4583 17.1303C12.3026 16.7085 13.1246 16.4244 13.8908 16.2746C14.5771 11.2983 18.5774 5.75449 23.4258 3.33153" fill="#FFCA00"/>
<path fill-rule="evenodd" clip-rule="evenodd" d="M62.7052 5.31804C61.7651 4.84552 60.6018 4.70626 59.3019 4.94292C58.4994 5.08943 57.6457 5.37921 56.7586 5.82114C55.9087 6.24617 55.0942 6.78067 54.3224 7.39969L57.4523 8.97421C58.2241 8.35519 59.0387 7.82069 59.8895 7.39647C60.7748 6.95293 61.6294 6.66395 62.4309 6.51744C63.7318 6.28078 64.8942 6.42004 65.8343 6.89256L62.7052 5.31804Z" fill="#D43E3E"/>
<path fill-rule="evenodd" clip-rule="evenodd" d="M51.6138 3.42194C50.5277 2.87537 49.1821 2.71437 47.6795 2.98806C46.7514 3.15711 45.7648 3.49197 44.741 4.00393C43.0403 4.85398 41.4427 6.09042 40.0563 7.55385C37.4982 10.2537 35.6589 13.7231 35.2135 16.9503C34.4398 17.1032 33.6243 17.3841 32.7744 17.8092C31.3052 18.5433 29.9262 19.6107 28.7294 20.8721C26.1648 23.5744 24.4352 27.1693 24.4454 30.2975C24.4529 32.5779 25.3837 34.1822 26.8827 34.9373L30.0126 36.511C28.5127 35.7568 27.5819 34.1525 27.5745 31.872C27.5643 28.7439 29.2948 25.1489 31.8585 22.4466C33.0561 21.1844 34.4352 20.1178 35.9034 19.3837C36.7552 18.9587 37.5698 18.6777 38.3434 18.5248C38.7889 15.2969 40.6282 11.8282 43.1863 9.12837C44.5727 7.66494 46.1703 6.4285 47.871 5.57765C48.8939 5.06649 49.8814 4.73163 50.8085 4.56258C52.3121 4.28889 53.6567 4.44989 54.7438 4.99646L51.6138 3.42194Z" fill="#D43E3E"/>
<path fill-rule="evenodd" clip-rule="evenodd" d="M47.8706 5.57781C52.7116 3.15887 56.7352 4.69958 57.4521 8.97397C58.2239 8.35495 59.0385 7.82126 59.8893 7.39623C64.5034 5.09 68.2573 6.94223 68.2722 11.5314C68.2871 16.1213 64.5573 21.7142 59.9433 24.0205L35.9579 36.0081C31.3448 38.3143 27.5899 36.4621 27.5751 31.8721C27.5602 27.2822 31.2899 21.6893 35.904 19.383C36.7548 18.9588 37.5703 18.6779 38.3431 18.5241C39.0293 13.5486 43.0297 7.99755 47.8706 5.57781" fill="#FA7564"/>
<path d="M81.66 26V12.92H84.28L86.6 19.32C86.7467 19.7333 86.8867 20.16 87.02 20.6C87.1533 21.0267 87.2933 21.4533 87.44 21.88H87.52C87.6667 21.4533 87.8 21.0267 87.92 20.6C88.0533 20.16 88.1933 19.7333 88.34 19.32L90.6 12.92H93.24V26H91.1V20.02C91.1 19.7133 91.1067 19.38 91.12 19.02C91.1467 18.66 91.1733 18.3 91.2 17.94C91.2267 17.5667 91.26 17.2067 91.3 16.86C91.34 16.5 91.3733 16.1667 91.4 15.86H91.32L90.26 18.9L88.12 24.78H86.74L84.58 18.9L83.54 15.86H83.46C83.4867 16.1667 83.5133 16.5 83.54 16.86C83.58 17.2067 83.6133 17.5667 83.64 17.94C83.68 18.3 83.7067 18.66 83.72 19.02C83.7467 19.38 83.76 19.7133 83.76 20.02V26H81.66ZM98.3925 26.24C97.5259 26.24 96.8259 25.98 96.2925 25.46C95.7592 24.9267 95.4925 24.2267 95.4925 23.36C95.4925 22.84 95.5992 22.38 95.8125 21.98C96.0392 21.5667 96.3859 21.2133 96.8525 20.92C97.3325 20.6267 97.9325 20.38 98.6525 20.18C99.3859 19.98 100.259 19.8267 101.273 19.72C101.259 19.4667 101.219 19.2267 101.153 19C101.099 18.76 100.999 18.5533 100.853 18.38C100.719 18.1933 100.539 18.0533 100.313 17.96C100.086 17.8533 99.8059 17.8 99.4725 17.8C98.9925 17.8 98.5192 17.8933 98.0525 18.08C97.5992 18.2667 97.1525 18.4933 96.7125 18.76L95.8725 17.22C96.4192 16.8733 97.0325 16.5733 97.7125 16.32C98.3925 16.0667 99.1259 15.94 99.9125 15.94C101.139 15.94 102.053 16.3067 102.653 17.04C103.266 17.76 103.573 18.8067 103.573 20.18V26H101.673L101.513 24.92H101.433C100.993 25.2933 100.519 25.6067 100.013 25.86C99.5192 26.1133 98.9792 26.24 98.3925 26.24ZM99.1325 24.44C99.5325 24.44 99.8925 24.3467 100.213 24.16C100.546 23.9733 100.899 23.7067 101.273 23.36V21.16C100.606 21.24 100.046 21.3467 99.5925 21.48C99.1392 21.6133 98.7725 21.7667 98.4925 21.94C98.2125 22.1 98.0125 22.2867 97.8925 22.5C97.7725 22.7133 97.7125 22.94 97.7125 23.18C97.7125 23.62 97.8459 23.94 98.1125 24.14C98.3792 24.34 98.7192 24.44 99.1325 24.44ZM105.975 26V16.18H107.875L108.035 17.92H108.115C108.462 17.28 108.882 16.7933 109.375 16.46C109.869 16.1133 110.375 15.94 110.895 15.94C111.362 15.94 111.735 16.0067 112.015 16.14L111.615 18.14C111.442 18.0867 111.282 18.0467 111.135 18.02C110.989 17.9933 110.809 17.98 110.595 17.98C110.209 17.98 109.802 18.1333 109.375 18.44C108.949 18.7333 108.582 19.2533 108.275 20V26H105.975ZM116.546 26.24C115.973 26.24 115.486 26.1533 115.086 25.98C114.7 25.8067 114.38 25.5667 114.126 25.26C113.886 24.94 113.706 24.5667 113.586 24.14C113.48 23.7 113.426 23.2133 113.426 22.68V18H112.026V16.28L113.546 16.18L113.826 13.5H115.746V16.18H118.246V18H115.746V22.68C115.746 23.8267 116.206 24.4 117.126 24.4C117.3 24.4 117.473 24.38 117.646 24.34C117.833 24.3 118 24.2467 118.146 24.18L118.546 25.88C118.28 25.9733 117.973 26.0533 117.626 26.12C117.293 26.2 116.933 26.24 116.546 26.24ZM121.913 26.24C121.047 26.24 120.347 25.98 119.813 25.46C119.28 24.9267 119.013 24.2267 119.013 23.36C119.013 22.84 119.12 22.38 119.333 21.98C119.56 21.5667 119.907 21.2133 120.373 20.92C120.853 20.6267 121.453 20.38 122.173 20.18C122.907 19.98 123.78 19.8267 124.793 19.72C124.78 19.4667 124.74 19.2267 124.673 19C124.62 18.76 124.52 18.5533 124.373 18.38C124.24 18.1933 124.06 18.0533 123.833 17.96C123.607 17.8533 123.327 17.8 122.993 17.8C122.513 17.8 122.04 17.8933 121.573 18.08C121.12 18.2667 120.673 18.4933 120.233 18.76L119.393 17.22C119.94 16.8733 120.553 16.5733 121.233 16.32C121.913 16.0667 122.647 15.94 123.433 15.94C124.66 15.94 125.573 16.3067 126.173 17.04C126.787 17.76 127.093 18.8067 127.093 20.18V26H125.193L125.033 24.92H124.953C124.513 25.2933 124.04 25.6067 123.533 25.86C123.04 26.1133 122.5 26.24 121.913 26.24ZM122.653 24.44C123.053 24.44 123.413 24.3467 123.733 24.16C124.067 23.9733 124.42 23.7067 124.793 23.36V21.16C124.127 21.24 123.567 21.3467 123.113 21.48C122.66 21.6133 122.293 21.7667 122.013 21.94C121.733 22.1 121.533 22.2867 121.413 22.5C121.293 22.7133 121.233 22.94 121.233 23.18C121.233 23.62 121.367 23.94 121.633 24.14C121.9 24.34 122.24 24.44 122.653 24.44ZM134.596 26.24C133.836 26.24 133.15 26.1333 132.536 25.92C131.936 25.6933 131.416 25.34 130.976 24.86C130.55 24.38 130.216 23.7667 129.976 23.02C129.75 22.26 129.636 21.34 129.636 20.26V12.92H131.956V20.44C131.956 21.1467 132.016 21.7467 132.136 22.24C132.27 22.72 132.45 23.1067 132.676 23.4C132.916 23.6933 133.196 23.9067 133.516 24.04C133.836 24.16 134.196 24.22 134.596 24.22C134.996 24.22 135.363 24.16 135.696 24.04C136.03 23.9067 136.316 23.6933 136.556 23.4C136.796 23.1067 136.983 22.72 137.116 22.24C137.25 21.7467 137.316 21.1467 137.316 20.44V12.92H139.536V20.26C139.536 21.34 139.423 22.26 139.196 23.02C138.97 23.7667 138.636 24.38 138.196 24.86C137.77 25.34 137.25 25.6933 136.636 25.92C136.036 26.1333 135.356 26.24 134.596 26.24ZM142.452 26V12.92H146.572C147.292 12.92 147.959 12.9867 148.572 13.12C149.199 13.2533 149.739 13.48 150.192 13.8C150.645 14.12 150.999 14.54 151.252 15.06C151.505 15.5667 151.632 16.2 151.632 16.96C151.632 17.68 151.505 18.3067 151.252 18.84C150.999 19.3733 150.645 19.82 150.192 20.18C149.752 20.5267 149.225 20.7867 148.612 20.96C148.012 21.12 147.359 21.2 146.652 21.2H144.772V26H142.452ZM144.772 19.34H146.472C148.392 19.34 149.352 18.5467 149.352 16.96C149.352 16.1333 149.099 15.5667 148.592 15.26C148.099 14.94 147.365 14.78 146.392 14.78H144.772V19.34Z" fill="white"/>
</svg>
